# xmcd
#
# Track frame offsets:
#	150
#	16881
#	28646
#	45884
#	61409
#	79031
#	96731
#	114372
#	132447
#	146847
#	163578
#	175343
#	192581
#	208106
#	225728
#	243428
#	261069
#	279144
#
# Disc length: 3913 seconds
#
# Revision: 1
# Processed by: cddbd v1.5.1PL2 Copyright (c) Steve Scherf et al.
# Submitted via: audiograbber 1.83.01
#
DISCID=fb0f4712
DTITLE=Pop Hits Monthly Nashville - Phmn0210
DYEAR=2002
DGENRE=Karaoke
TTITLE0=Rascal Flatts - These Days
TTITLE1=Emerson Drive - Fall Into Me
TTITLE2=Keith Urban - Somebody Like You
TTITLE3=Willie Nelson And Toby Keith - Beer For My Horses
TTITLE4=Travis Tritt - Strong Enough To Be Your Man
TTITLE5=John Michael Montgomery - Til Nothing Comes Between Us
TTITLE6=Anthony Smith - If That Ain't Country
TTITLE7=Chad Brock - Man's Gotta Do
TTITLE8=Rodney Atkins - Sing Along
TTITLE9=Rascal Flatts (Vocal) - These Days
TTITLE10=Emerson Drive (Vocal) - Fall Into Me
TTITLE11=Keith Urban (Vocal) - Somebody Like You
TTITLE12=Willie Nelson And Toby Keith (Vocal) - Beer For My Horses
TTITLE13=Travis Tritt (Vocal) - Strong Enough To Be Your Man
TTITLE14=John Michael Montgomery (Vocal) - Til Nothing Comes Between Us
TTITLE15=Anthony Smith (Vocal) - If That Ain't Country
TTITLE16=Chad Brock (Vocal) - Man's Gotta Do
TTITLE17=Rodney Atkins (Vocal) - Sing Along
EXTD=
EXTT0=
EXTT1=
EXTT2=
EXTT3=
EXTT4=
EXTT5=
EXTT6=
EXTT7=
EXTT8=
EXTT9=
EXTT10=
EXTT11=
EXTT12=
EXTT13=
EXTT14=
EXTT15=
EXTT16=
EXTT17=
PLAYORDER=
